<?xml version="1.0" encoding="UTF-8"?>
<svg version="1.1" xmlns="http://www.w3.org/2000/svg" width="200" height="200">
<path d="M0 0 C0 2.97 0 5.94 0 9 C1.98 9 3.96 9 6 9 C6 11.31 6 13.62 6 16 C8.31 16 10.62 16 13 16 C13 17.98 13 19.96 13 22 C15.97 22 18.94 22 22 22 C20.01481781 25.97036438 17.75405454 28.52910527 14.6640625 31.59472656 C14.12078308 32.14151062 13.57750366 32.68829468 13.01776123 33.25164795 C11.22516477 35.05302948 9.42537258 36.84701768 7.625 38.640625 C6.37682289 39.89014929 5.12894281 41.13997035 3.88134766 42.39007568 C1.26854023 45.00582968 -1.34784601 47.61793646 -3.96679688 50.22753906 C-7.32975239 53.57907676 -10.683619 56.93954389 -14.03488159 60.30276871 C-16.60825584 62.88335399 -19.18635478 65.45917646 -21.76593018 68.03356171 C-23.00501499 69.27130915 -24.24260703 70.5105528 -25.47869873 71.75128937 C-27.20237239 73.48001837 -28.93228523 75.20224581 -30.6640625 76.92285156 C-31.17737122 77.44020874 -31.69067993 77.95756592 -32.21954346 78.49060059 C-35.77146816 82 -35.77146816 82 -38 82 C-38 79.03 -38 76.06 -38 73 C-39.98 73 -41.96 73 -44 73 C-44 70.69 -44 68.38 -44 66 C-46.31 66 -48.62 66 -51 66 C-51 64.02 -51 62.04 -51 60 C-53.97 60 -56.94 60 -60 60 C-58.01481781 56.02963562 -55.75405454 53.47089473 -52.6640625 50.40527344 C-52.12078308 49.85848938 -51.57750366 49.31170532 -51.01776123 48.74835205 C-49.22516477 46.94697052 -47.42537258 45.15298232 -45.625 43.359375 C-44.37682289 42.10985071 -43.12894281 40.86002965 -41.88134766 39.60992432 C-39.26854023 36.99417032 -36.65215399 34.38206354 -34.03320312 31.77246094 C-30.67024761 28.42092324 -27.316381 25.06045611 -23.96511841 21.69723129 C-21.39174416 19.11664601 -18.81364522 16.54082354 -16.23406982 13.96643829 C-14.99498501 12.72869085 -13.75739297 11.4894472 -12.52130127 10.24871063 C-10.79762761 8.51998163 -9.06771477 6.79775419 -7.3359375 5.07714844 C-6.82262878 4.55979126 -6.30932007 4.04243408 -5.78045654 3.50939941 C-2.22853184 0 -2.22853184 0 0 0 Z M-6 12 C-19.86 25.86 -33.72 39.72 -48 54 C-47.34 54.33 -46.68 54.66 -46 55 C-46 56.98 -46 58.96 -46 61 C-43.69 61 -41.38 61 -39 61 C-39 63.31 -39 65.62 -39 68 C-37.02 68 -35.04 68 -33 68 C-32.67 68.66 -32.34 69.32 -32 70 C-18.14 56.14 -4.28 42.28 10 28 C9.34 27.67 8.68 27.34 8 27 C8 25.02 8 23.04 8 21 C5.69 21 3.38 21 1 21 C1 18.69 1 16.38 1 14 C-0.98 14 -2.96 14 -5 14 C-5.495 13.01 -5.495 13.01 -6 12 Z " fill="#000000" transform="translate(119,59)"/>
</svg>
